<svg xmlns="http://www.w3.org/2000/svg" version="1.1" xmlns:xlink="http://www.w3.org/1999/xlink" xmlns:svgjs="http://svgjs.com/svgjs" width="512" height="512" x="0" y="0" viewBox="0 0 512 512" style="enable-background:new 0 0 512 512" xml:space="preserve" class=""><g><g><path d="m75.4 125h110.2c7.8 0 14.1-6.3 14.1-14.1s-6.3-14.1-14.1-14.1h-110.2c-7.8 0-14.1 6.3-14.1 14.1s6.3 14.1 14.1 14.1z" fill="#334155" data-original="#000000" class=""></path><path d="m75.4 203.7h222.1c7.8 0 14.1-6.3 14.1-14.1s-6.3-14.1-14.1-14.1h-222.1c-7.8 0-14.1 6.3-14.1 14.1s6.3 14.1 14.1 14.1z" fill="#334155" data-original="#000000" class=""></path><path d="m75.4 282.4h222.1c7.8 0 14.1-6.3 14.1-14.1s-6.3-14.1-14.1-14.1h-222.1c-7.8 0-14.1 6.3-14.1 14.1s6.3 14.1 14.1 14.1z" fill="#334155" data-original="#000000" class=""></path><path d="m182 332.8h-106.6c-7.8 0-14.1 6.3-14.1 14.1s6.3 14.1 14.1 14.1h106.6c7.8 0 14.1-6.3 14.1-14.1 0-7.7-6.3-14.1-14.1-14.1z" fill="#334155" data-original="#000000" class=""></path><path d="m148.5 411.5h-73.1c-7.8 0-14.1 6.3-14.1 14.1s6.3 14.1 14.1 14.1h73.1c7.8 0 14.1-6.3 14.1-14.1.1-7.8-6.3-14.1-14.1-14.1z" fill="#334155" data-original="#000000" class=""></path><path d="m494.7 177.7c-17-17.4-45.4-22-65.3-3.4l-58.5 58.5v-115.5c0-3.7-1.5-7.3-4.1-10l-101.2-101.2c-2.6-2.6-6.2-4.1-10-4.1h-211.2c-23.4 0-42.4 19-42.4 42.3v423.3c0 23.4 19 42.4 42.4 42.4h284.2c23.3 0 42.3-19 42.3-42.3v-97.5l127.2-127.2c17.1-17.1 15.6-46.4-3.4-65.3zm-172-74.5h-53v-53zm20 364.5c0 7.8-6.3 14.1-14.1 14.1h-284.2c-7.8 0-14.1-6.3-14.1-14.1v-423.4c0-7.8 6.3-14.1 14.1-14.1h197.2v87c0 7.8 6.3 14.1 14.1 14.1h87v129.8l-123.2 123.2c-1.9 1.9-3.2 4.3-3.8 6.9l-13.9 62.6c-1 4.7.4 9.6 3.8 13 4 3.8 8.4 4.6 13 3.8l62.6-13.9c2.6-.6 5-1.9 6.9-3.8l54.5-54.5v69.3zm135.4-244.6-207 207-36.9 8.2 8.2-36.9 207-207c6.5-6.2 17.4-4.3 25.4 3.4 7.8 7.7 9.3 19.3 3.3 25.3z" fill="#334155" data-original="#000000" class=""></path></g></g></svg>