<svg xmlns="http://www.w3.org/2000/svg" version="1.1" xmlns:xlink="http://www.w3.org/1999/xlink" xmlns:svgjs="http://svgjs.com/svgjs" width="512" height="512" x="0" y="0" viewBox="0 0 512 512" style="enable-background:new 0 0 512 512" xml:space="preserve" class=""><g><path d="m397 28.086h-282c-63.411 0-115 51.589-115 115v110c0 58.33 43.648 106.655 100 114.026v101.801c0 6.067 3.654 11.537 9.26 13.858 1.855.769 3.805 1.142 5.737 1.142 3.903 0 7.74-1.524 10.609-4.394l111.434-111.433h159.96c63.411 0 115-51.589 115-115v-110c0-63.411-51.589-115-115-115zm85 225c0 46.869-38.131 85-85 85h-166.173c-3.979 0-7.794 1.58-10.606 4.393l-90.221 90.221v-79.614c0-8.284-6.716-15-15-15-46.869 0-85-38.131-85-85v-110c0-46.869 38.131-85 85-85h282c46.869 0 85 38.131 85 85z" fill="#334155" data-original="#000000" class=""></path><path d="m182.7 155.856c6 0 9.4-6.4 9.4-13.8 0-6.4-2.801-13.4-9.4-13.4h-69.398c-6.801 0-13.6 3.2-13.6 9.6v126.998c0 6.4 7.799 9.6 15.6 9.6 7.799 0 15.6-3.2 15.6-9.6v-51.6h30.199c6.6 0 9.4-6.4 9.4-11.8 0-6.4-3.4-12.2-9.4-12.2h-30.199v-33.799h51.798z" fill="#334155" data-original="#000000" class=""></path><path d="m265.903 137.856c-2.199-7-11.199-10.4-20.4-10.4-9.199 0-18.199 3.4-20.398 10.4l-37.199 121.998c-.201.8-.4 1.6-.4 2.2 0 7.4 11.4 12.8 20 12.8 5 0 9-1.6 10.199-5.8l6.801-25h42.199l6.799 25c1.201 4.2 5.201 5.8 10.199 5.8 8.602 0 20-5.4 20-12.8 0-.6-.199-1.4-.398-2.2zm-35 82.198 14.6-53.599 14.6 53.599z" fill="#334155" data-original="#000000" class=""></path><path d="m372.7 128.656c-27.6 0-48.998 12.6-48.998 47.199v52.999c0 30.4 16.6 43.799 39.398 46.6v11.6c0 6.4 4.801 9.6 9.6 9.6 4.801 0 9.6-3.2 9.6-9.6v-11.6c22.801-2.8 39.6-16.2 39.6-46.6v-52.999c-.001-34.599-21.6-47.199-49.2-47.199zm18 100.198c0 9.2-3.199 15-8.4 18v-8.8c0-6.6-4.799-9.4-9.6-9.4-4.799 0-9.6 2.8-9.6 9.4v8.8c-5.4-3-8.199-8.8-8.199-18v-52.999c0-13.6 6.6-19.999 17.799-19.999 11.201 0 18 6.4 18 19.999z" fill="#334155" data-original="#000000" class=""></path></g></svg>