<svg xmlns="http://www.w3.org/2000/svg" version="1.1" xmlns:xlink="http://www.w3.org/1999/xlink" xmlns:svgjs="http://svgjs.com/svgjs" width="512" height="512" x="0" y="0" viewBox="0 0 60 60" style="enable-background:new 0 0 512 512" xml:space="preserve" class=""><g><g id="027---Testimonial"><path id="Shape" d="m28.6 14.833c.4523345.2508713 1.0087517.2185531 1.429-.083.4338577-.3053411.6533447-.8330437.564-1.356l-.316-1.923 1.323-1.353c.3686779-.37261381.4956042-.92133788.328-1.418-.1593245-.48822117-.5802557-.8449294-1.088-.922l-1.8-.274-.813-1.722c-.2220969-.47836884-.7015877-.78440032-1.229-.78440032s-1.0069031.30603148-1.229.78440032l-.813 1.722-1.8.274c-.5081237.07672126-.9295152.43349158-1.089.922-.1676949.49469899-.0423627 1.04167349.324 1.414l1.328 1.354-.316 1.923c-.0893447.5229563.1301423 1.0506589.564 1.356.4215729.3001564.9778997.3320354 1.431.082l1.6-.879zm-3.01-2.387.156-.953c.0735226-.4372766-.066614-.8833347-.377-1.2l-.7-.718.929-.141c.450235-.06889466.8365119-.35766471 1.03-.77l.376-.8.377.8c.1925254.4110811.5773253.69911845 1.026.768l.932.142-.7.715c-.3116151.3160127-.452914.7622198-.38 1.2l.156.955-.762-.42c-.4046579-.2229441-.8953421-.2229441-1.3 0z" fill="#334155" data-original="#000000"></path><path id="Shape" d="m35.724 11.471-.316 1.923c-.0893447.5229563.1301423 1.0506589.564 1.356.4215729.3001564.9778997.3320354 1.431.082l1.6-.879 1.6.88c.4523345.2508713 1.0087517.2185531 1.429-.083.4338577-.3053411.6533447-.8330437.564-1.356l-.316-1.923 1.32-1.353c.3686779-.37261381.4956042-.92133788.328-1.418-.1593245-.48822117-.5802557-.8449294-1.088-.922l-1.8-.274-.813-1.722c-.2220969-.47836884-.7015877-.78440032-1.229-.78440032s-1.0069031.30603148-1.229.78440032l-.813 1.722-1.8.274c-.5081237.07672126-.9295152.43349158-1.089.922-.1676949.49469899-.0423627 1.04167349.324 1.414zm1.87-2.037c.450235-.06889466.8365119-.35766471 1.03-.77l.376-.8.377.8c.1925254.4110811.5773253.69911845 1.026.768l.932.142-.7.715c-.3116151.3160127-.452914.7622198-.38 1.2l.156.955-.762-.42c-.4046579-.2229441-.8953421-.2229441-1.3 0l-.759.418.156-.953c.0735226-.4372766-.066614-.8833347-.377-1.2l-.7-.718z" fill="#334155" data-original="#000000"></path><path id="Shape" d="m54.84 7.781-1.8-.274-.813-1.722c-.2220969-.47836884-.7015877-.78440032-1.229-.78440032s-1.0069031.30603148-1.229.78440032l-.813 1.722-1.8.274c-.5081237.07672126-.9295152.43349158-1.089.922-.1676949.49469899-.0423627 1.04167349.324 1.414l1.328 1.354-.316 1.923c-.0893447.5229563.1301423 1.0506589.564 1.356.4215729.3001564.9778997.3320354 1.431.082l1.6-.879 1.6.88c.4523345.2508713 1.0087517.2185531 1.429-.083.4338577-.3053411.6533447-.8330437.564-1.356l-.316-1.923 1.325-1.353c.3686779-.37261381.4956042-.92133788.328-1.418-.1602612-.48705197-.5810067-.84244263-1.088-.919zm-2.206 2.509c-.3116151.3160127-.452914.7622198-.38 1.2l.156.955-.762-.42c-.4046579-.2229441-.8953421-.2229441-1.3 0l-.759.418.156-.953c.0735226-.4372766-.066614-.8833347-.377-1.2l-.7-.718.929-.141c.450235-.06889466.8365119-.35766471 1.03-.77l.376-.8.377.8c.1925254.4110811.5773253.69911845 1.026.768l.932.142z" fill="#334155" data-original="#000000"></path><path id="Shape" d="m56 0h-34c-2.209139 0-4 1.790861-4 4v17.293c-.9875953-.1983515-1.9926891-.2965157-3-.293-3.59 0-6.271 1.025-7.968 3.049-2.245 2.675-2.241 6.431-1.8 9.24l-.007.013c-.3622557.9180908-.27841473 1.9522525.227 2.8.109.217.2.418.272.586.12818194.2984256.19614961.619233.2.944-.02931883.6209607.19397199 1.2273449.619 1.681.255801.2580526.57153499.4487298.919.555.06934248.8693561.2903451 1.7198608.653 2.513.46951404.7560533 1.11660075 1.3859759 1.885 1.835v2.784h-4c-3.31233757.0033074-5.99669262 2.6876624-6 6v4c0 1.6568542 1.34314575 3 3 3h24c1.6568542 0 3-1.3431458 3-3v-4c-.0033074-3.3123376-2.6876624-5.9966926-6-6h-4v-2.784c.7685393-.4529282 1.4149112-1.0865993 1.883-1.846.3608639-.7889692.5805263-1.6351263.649-2.5.3476365-.105886.6634592-.2966168.919-.555.4209814-.4476944.6440751-1.0459749.619-1.66.0017032-.3304877.0697126-.6572728.2-.961.072-.171.163-.371.271-.586.5048851-.8478088.5894199-1.8814216.229-2.8l-.007-.013c.1779441-1.0888726.2532746-2.1920457.225-3.295h3.012v6.01c.0037225.741554.4174464 1.420177 1.0749201 1.7631703s1.4507586.294047 2.0610799-.1271703l11.174-7.646h13.69c2.209139 0 4-1.790861 4-4v-22c0-2.209139-1.790861-4-4-4zm-47.437 25.334c1.3-1.549 3.466-2.334 6.437-2.334s5.137.785 6.437 2.334c1.5 1.784 1.662 4.364 1.5 6.364-.081-.371-.178-.778-.314-1.223-.3216669-1.4535099-1.1412619-2.7488732-2.317-3.662-.7062771-.4665946-1.6552507-.2897123-2.146.4-.09.134-.675.787-3.16.787s-3.07-.653-3.168-.794c-.4876979-.6782518-1.4219204-.8542711-2.123-.4-1.18543986.9126361-2.01202614 2.2132262-2.335 3.674-.136.443-.233.85-.313 1.22-.161-2 .006-4.582 1.502-6.366zm9.437 22.666c0 1.6568542-1.3431458 3-3 3s-3-1.3431458-3-3v-2.285c.8049051.7872491 1.8748001 1.2455208 3 1.285 1.1247566-.0397053 2.1943509-.4971352 3-1.283zm10 5v4c0 .5522847-.4477153 1-1 1h-24c-.55228475 0-1-.4477153-1-1v-4c0-2.209139 1.790861-4 4-4h4.1c.4731925 2.330324 2.5221184 4.0050126 4.9 4.0050126s4.4268075-1.6746886 4.9-4.0050126h4.1c2.209139 0 4 1.790861 4 4zm-5.239-17.807v.009c-.131.261-.241.5-.33.713-.2356479.5557917-.3570572 1.153316-.357 1.757.0089535.0828255-.0081769.1663798-.049.239-.1353513.0755405-.2910063.1066715-.445.089-.5522847 0-1 .4477153-1 1-.0002629.8436987-.1625343 1.6794983-.478 2.462-.4323651.5912866-1.0025359 1.0680881-1.661 1.389l-.2.121c-.2.115-.376.211-.521.291-.2494514.1397877-.4713968.3237822-.655.543-.4965268.6631523-1.2425572 1.0945132-2.065 1.194-.8311173-.1013839-1.584162-.5395453-2.083-1.212-.186351-.2174563-.4102373-.3996815-.661-.538-.124-.067-.3-.163-.468-.26l-.267-.164c-.6423182-.3138333-1.1986472-.779214-1.621-1.356-.3157739-.7852713-.47869149-1.623618-.48-2.47 0-.5522847-.44771525-1-1-1-.1526742.0168203-.30679907-.0142842-.441-.089-.04294936-.0798329-.06006982-.1710256-.049-.261-.00244204-.5981362-.12450317-1.1897417-.359-1.74-.087-.206-.2-.447-.332-.717-.20889493-.310388-.27884515-.6938456-.193-1.058.0163553-.0425956.04914691-.0768286.091-.095.05114624-.0053688.10261322-.0070398.154-.005.06015857.0157424.11900246.0361372.176.061.2910465.109732.61658177.0777845.88074322-.0864345.26416146-.1642191.43686623-.4420084.46725678-.7515655.09616004-.7429976.25335821-1.476812.47-2.194.21742833-.8654025.63341577-1.6682753 1.215-2.345.847.85 2.357 1.281 4.5 1.281s3.662-.433 4.5-1.282c.5788598.6774585.9930075 1.4797413 1.21 2.344.2169854.7174976.3745178 1.451645.471 2.195.0301053.3097383.2026937.5878065.4668968.7522474.2642032.164441.5899028.1965091.8811032.0867526.064-.025.12-.049.156-.058h.05c.061 0 .133 0 .107 0 .018.005.068.017.108.1.0861359.3626569.0176763.7447995-.189 1.055zm35.239-9.193c0 1.1045695-.8954305 2-2 2h-13.69c-.4040306.0008671-.7988325.120873-1.135.345l-11.175 7.665v-6.01c0-1.1045695-.8954305-2-2-2h-3.231c-.2522103-1.449272-.8719602-2.809623-1.8-3.951-.8038241-.9431824-1.8218998-1.6800785-2.969-2.149v-17.9c0-1.1045695.8954305-2 2-2h34c1.1045695 0 2 .8954305 2 2z" fill="#334155" data-original="#000000"></path><path id="Path" d="m51 18h-24c-.5522847 0-1 .4477153-1 1s.4477153 1 1 1h24c.5522847 0 1-.4477153 1-1s-.4477153-1-1-1z" fill="#334155" data-original="#000000"></path><path id="Path" d="m45 22h-12c-.5522847 0-1 .4477153-1 1s.4477153 1 1 1h12c.5522847 0 1-.4477153 1-1s-.4477153-1-1-1z" fill="#334155" data-original="#000000"></path></g></g></svg>