<svg xmlns="http://www.w3.org/2000/svg" version="1.1" xmlns:xlink="http://www.w3.org/1999/xlink" xmlns:svgjs="http://svgjs.com/svgjs" width="512" height="512" x="0" y="0" viewBox="0 0 512 512" style="enable-background:new 0 0 512 512" xml:space="preserve" class=""><g><path d="m152.9434 273.4868a75.5415 75.5415 0 1 0 -75.5415-75.5415 75.627 75.627 0 0 0 75.5415 75.5415zm0-119.083a43.5415 43.5415 0 1 1 -43.5415 43.5415 43.591 43.591 0 0 1 43.5415-43.5415zm206.1132 32.5308a75.5415 75.5415 0 1 0 -75.5415-75.5415 75.627 75.627 0 0 0 75.5415 75.5415zm0-119.083a43.5415 43.5415 0 1 1 -43.5415 43.5415 43.5909 43.5909 0 0 1 43.5415-43.5415zm34.8721 141.7412h-69.7441a118.5123 118.5123 0 0 0 -114.3238 88.6249 118.219 118.219 0 0 0 -22.0454-2.0727h-69.7441a118.2053 118.2053 0 0 0 -118.0713 118.0713v45.9321a16 16 0 0 0 16 16h273.8867a16 16 0 0 0 16-16v-45.9321a118.084 118.084 0 0 0 -2.59-24.62h192.7033a16 16 0 0 0 16-16v-45.9322a118.2053 118.2053 0 0 0 -118.0713-118.0713zm-120.042 234.5556h-241.8867v-29.9321a86.1686 86.1686 0 0 1 86.0713-86.0713h69.7441a86.1686 86.1686 0 0 1 86.0713 86.0713zm206.1133-86.5522h-188.6013a118.8863 118.8863 0 0 0 -51.0838-49.1153c8.8667-38.299 43.7106-66.8881 83.87-66.8881h69.7441a86.1686 86.1686 0 0 1 86.071 86.0713z" fill="#334155" data-original="#000000" class=""></path></g></svg>